<?xml version="1.0" standalone="no"?><!DOCTYPE svg PUBLIC "-//W3C//DTD SVG 1.1//EN" "http://www.w3.org/Graphics/SVG/1.1/DTD/svg11.dtd"><svg t="1646902945189" class="icon" viewBox="0 0 1024 1024" version="1.1" xmlns="http://www.w3.org/2000/svg" p-id="6229" xmlns:xlink="http://www.w3.org/1999/xlink" width="128" height="128"><defs><style type="text/css"></style></defs><path d="M876.544 899.3792H152.064s-57.7536 8.9088-57.7536-67.9936V209.5104s1.3312-69.2224 71.7824-69.2224h253.8496s30.72-6.4512 56.4224 33.28c24.3712 38.5024 38.5024 62.8736 38.5024 62.8736s9.0112 10.24 29.4912 10.24H871.424s57.6512-6.4512 57.6512 57.6512v530.8416c0.1024 0.1024 9.0112 64.2048-52.5312 64.2048m-53.8624-487.2192c0-15.36-12.8-28.2624-28.2624-28.2624h-564.224c-16.6912 0-29.4912 12.8-29.4912 28.2624v2.56c0 16.6912 12.8 29.4912 29.4912 29.4912h564.224c15.36 0 28.2624-12.8 28.2624-29.4912v-2.56z" p-id="6230" fill="#557ff7"></path></svg>