<?xml version="1.0" standalone="no"?><!DOCTYPE svg PUBLIC "-//W3C//DTD SVG 1.1//EN" "http://www.w3.org/Graphics/SVG/1.1/DTD/svg11.dtd"><svg t="1646902956264" class="icon" viewBox="0 0 1024 1024" version="1.1" xmlns="http://www.w3.org/2000/svg" p-id="6471" xmlns:xlink="http://www.w3.org/1999/xlink" width="128" height="128"><defs><style type="text/css"></style></defs><path d="M964.48 384h-704A90.24 90.24 0 0 0 179.2 448l-102.4 384a47.36 47.36 0 0 0 46.72 64h704a90.24 90.24 0 0 0 81.28-64l102.4-384a47.36 47.36 0 0 0-46.72-64z" fill="#577ff77d" p-id="6472"></path><path d="M192 320h768a64 64 0 0 0-64-64H128a64 64 0 0 0-64 64v512a64 64 0 0 0 64 64V384a64 64 0 0 1 64-64z" fill="#577ff77d" p-id="6473"></path><path d="M128 128h320a64 64 0 0 1 64 64v128H64V192a64 64 0 0 1 64-64z" fill="#577ff77d" p-id="6474"></path></svg>