<?xml version="1.0" encoding="utf-8"?>
<!-- Generator: Adobe Illustrator 24.1.2, SVG Export Plug-In . SVG Version: 6.00 Build 0)  -->
<svg version="1.1" id="图层_1" xmlns="http://www.w3.org/2000/svg" xmlns:xlink="http://www.w3.org/1999/xlink" x="0px" y="0px"
	 viewBox="0 0 340.2 340.2" style="enable-background:new 0 0 340.2 340.2;" xml:space="preserve">
<style type="text/css">
	.st0{fill:#2A5AA9;}
	.st1{fill:#00913A;}
	.st2{fill:#171C61;}
	.st3{fill:#EB6100;}
</style>
<g>
	<g>
		<polygon class="st0" points="12.8,13.8 106.7,107.3 266.1,73.7 326,13.8 		"/>
		<polygon class="st1" points="326,13.8 232.5,107.3 262.1,264.6 326,326.9 		"/>
		<polygon class="st2" points="326,326.9 232.4,233.4 75.1,263.1 12.8,326.9 		"/>
		<polygon class="st3" points="12.8,326.9 106.4,233 72.7,73.6 12.8,13.8 		"/>
	</g>
	<g>
		<path d="M133.2,152.6l16.6,51.6c5.5-16.8,11.1-34,16.6-51.6c3,0.8,6,1,9,0.6c3,0.4,6,0.2,9-0.6l16.6,51.6
			c6.4-16.8,12.2-34,17.3-51.6c1.7,0.8,3.8,1,6.4,0.6c1.7,0.4,3.8,0.2,6.4-0.6c-11.5,25.8-20.7,49.8-27.5,72.1c-3,0-6,0-9,0
			c-3,0-6,0-9,0l-16-48.6c-1.7,4.3-3.2,8.4-4.5,12.3c-6,16-10.2,28.1-12.8,36.3c-3,0-6,0-9,0c-3,0-6,0-9,0
			c-7.7-23.4-16.2-47.5-25.6-72.1c3.8,0.8,7.9,1,12.2,0.6C124.9,153.6,129,153.4,133.2,152.6z"/>
	</g>
</g>
</svg>
